HIERARCHY
ROOT Hips
{
	OFFSET 0.000000 0.000000 0.000000
	CHANNELS 6 Xposition Yposition Zposition Zrotation Yrotation Xrotation 
	JOINT LowerBack
	{
		OFFSET 0.000000 0.000000 0.000000
		CHANNELS 3 Zrotation Yrotation Xrotation
		JOINT Spine
		{
			OFFSET 0.028270 2.035590 -0.193380
			CHANNELS 3 Zrotation Yrotation Xrotation
			JOINT Spine1
			{
				OFFSET 0.056720 2.048850 -0.042750
				CHANNELS 3 Zrotation Yrotation Xrotation
				JOINT Neck
				{
					OFFSET 0.000000 0.000000 0.000000
					CHANNELS 3 Zrotation Yrotation Xrotation
					JOINT Neck1
					{
						OFFSET -0.054170 1.746240 0.172020
						CHANNELS 3 Zrotation Yrotation Xrotation
						JOINT Head
						{
							OFFSET 0.104070 1.761360 -0.123970
							CHANNELS 3 Zrotation Yrotation Xrotation
							End Site
							{
								OFFSET 0.000000 0.000000 0.000000
							}
						}
					}
				}
				JOINT LeftShoulder
				{
					OFFSET 0.000000 0.000000 0.000000
					CHANNELS 3 Zrotation Yrotation Xrotation
					JOINT LeftArm
					{
						OFFSET 3.362410 1.200890 -0.311210
						CHANNELS 3 Zrotation Yrotation Xrotation
						JOINT LeftForeArm
						{
							OFFSET 4.983000 -0.000000 -0.000000
							CHANNELS 3 Zrotation Yrotation Xrotation
							JOINT LeftHand
							{
								OFFSET 3.483560 -0.000000 -0.000000
								CHANNELS 3 Zrotation Yrotation Xrotation
								JOINT LeftFingerBase
								{
									OFFSET 0.000000 0.000000 0.000000
									CHANNELS 3 Zrotation Yrotation Xrotation
									JOINT LeftHandIndex1
									{
										OFFSET 0.715260 -0.000000 -0.000000
										CHANNELS 3 Zrotation Yrotation Xrotation
										End Site
										{
											OFFSET 0.000000 0.000000 0.000000
										}
									}
								}
								JOINT LThumb
								{
									OFFSET 0.000000 0.000000 0.000000
									CHANNELS 3 Zrotation Yrotation Xrotation
									End Site
									{
										OFFSET 0.000000 0.000000 0.000000
									}
								}
							}
						}
					}
				}
				JOINT RightShoulder
				{
					OFFSET 0.000000 0.000000 0.000000
					CHANNELS 3 Zrotation Yrotation Xrotation
					JOINT RightArm
					{
						OFFSET -3.136600 1.374050 -0.404650
						CHANNELS 3 Zrotation Yrotation Xrotation
						JOINT RightForeArm
						{
							OFFSET -5.241900 -0.000000 -0.000000
							CHANNELS 3 Zrotation Yrotation Xrotation
							JOINT RightHand
							{
								OFFSET -3.444170 -0.000000 -0.000000
								CHANNELS 3 Zrotation Yrotation Xrotation
								JOINT RightFingerBase
								{
									OFFSET 0.000000 0.000000 0.000000
									CHANNELS 3 Zrotation Yrotation Xrotation
									JOINT RightHandIndex1
									{
										OFFSET -0.622530 -0.000000 -0.000000
										CHANNELS 3 Zrotation Yrotation Xrotation
										End Site
										{
											OFFSET 0.000000 0.000000 0.000000
										}
									}
								}
								JOINT RThumb
								{
									OFFSET 0.000000 0.000000 0.000000
									CHANNELS 3 Zrotation Yrotation Xrotation
									End Site
									{
										OFFSET 0.000000 0.000000 0.000000
									}
								}
							}
						}
					}
				}
			}
		}
	}
}
}
MOTION
Frames: 11
Frame Time: 0.008333
18.505889 16.808638 2.191313 163.866660 -81.836877 -143.597177 -4.464798 0.316803 4.878829 -2.247690 0.585365 -2.062230 -8.631028 0.479646 0.826405 8.118671 5.438998 2.657030 -6.295823 -0.493225 2.218687 0.000000 0.000000 0.000000 -7.017647 0.479585 1.999993 -57.498198 -11.458934 9.421204 -3.911778 -21.318327 -0.001632 2.492729 0.979560 0.022030 -0.088382 0.027127 -0.000000 0.000000 0.000000 0.000000 0.000000 0.000000 0.000000 25.147321 2.846564 0.054696 67.360387 6.650660 -10.557152 3.261670 7.680820 0.008983 -1.027918 7.285614 -0.070379 0.074165 -0.048378 0.000000 0.000000 0.000000 0.000000 0.000000 0.000000 0.000000 
18.377131 16.836556 2.196516 163.045122 -81.768623 -142.728774 -4.695240 0.280331 5.004751 -2.295922 0.558357 -2.027254 -8.591667 0.455647 0.840149 8.069749 5.417010 2.772387 -6.270081 -0.492047 2.243776 0.000000 0.000000 0.000000 -6.889435 0.189364 2.000979 -57.570931 -11.574668 9.238272 -3.928084 -20.757898 -0.001908 2.440755 1.115979 0.024520 -0.087862 0.029043 -0.000000 0.000000 0.000000 0.000000 0.000000 0.000000 0.000000 24.980486 2.729557 0.035268 67.409679 6.371040 -10.906658 3.240105 7.713588 0.008882 -1.170481 7.181060 -0.078482 0.075287 -0.047444 0.000000 0.000000 0.000000 0.000000 0.000000 0.000000 0.000000 
18.249870 16.865718 2.204854 162.646602 -81.659439 -142.271934 -4.871787 0.263956 5.129645 -2.332609 0.548737 -1.990096 -8.542044 0.449361 0.862541 7.974101 5.384292 2.880717 -6.235612 -0.490295 2.267192 0.000000 0.000000 0.000000 -6.799493 -0.059823 1.995063 -57.669135 -11.781755 9.088166 -3.944556 -20.185422 -0.002199 2.347389 1.267403 0.026813 -0.087632 0.031364 -0.000000 0.000000 0.000000 0.000000 0.000000 0.000000 0.000000 24.730829 2.621369 0.013870 67.493823 6.135644 -11.094823 3.222901 7.811397 0.008791 -1.290845 7.052336 -0.084586 0.076608 -0.046577 0.000000 0.000000 0.000000 0.000000 0.000000 0.000000 0.000000 
18.124351 16.895309 2.216373 162.771427 -81.509564 -142.320260 -4.982034 0.269588 5.239949 -2.354524 0.557914 -1.958624 -8.483414 0.460975 0.875465 7.836739 5.398823 3.006984 -6.191562 -0.488087 2.296198 0.000000 0.000000 0.000000 -6.749205 -0.312358 1.989514 -57.785010 -11.994674 8.951748 -3.958106 -19.658450 -0.002484 2.218708 1.431487 0.028606 -0.087521 0.033845 -0.000000 0.000000 0.000000 0.000000 0.000000 0.000000 0.000000 24.394017 2.581882 -0.003693 67.615713 5.876749 -11.258413 3.212629 7.979973 0.008713 -1.342325 6.907870 -0.086087 0.077810 -0.045948 0.000000 0.000000 0.000000 0.000000 0.000000 0.000000 0.000000 
18.000365 16.924645 2.230156 163.300703 -81.317623 -142.756246 -5.047751 0.292742 5.336256 -2.366630 0.582722 -1.929403 -8.420872 0.487981 0.890904 7.669427 5.419960 3.130384 -6.142623 -0.485601 2.324764 0.000000 0.000000 0.000000 -6.729959 -0.534964 1.980282 -57.905188 -12.252744 8.860231 -3.970376 -19.178035 -0.002757 2.064100 1.601145 0.029902 -0.087634 0.036401 -0.000000 0.000000 0.000000 0.000000 0.000000 0.000000 0.000000 24.007377 2.568369 -0.020329 67.754783 5.645562 -11.283141 3.208441 8.203708 0.008639 -1.335403 6.744607 -0.083689 0.078916 -0.045309 0.000000 0.000000 0.000000 0.000000 0.000000 0.000000 0.000000 
17.878028 16.953070 2.245422 164.169478 -81.087115 -143.516195 -5.077745 0.330127 5.415831 -2.370805 0.620466 -1.904373 -8.357879 0.527388 0.903703 7.484064 5.462055 3.257019 -6.090937 -0.482999 2.354504 0.000000 0.000000 0.000000 -6.733455 -0.742205 1.970310 -58.017786 -12.524704 8.818704 -3.980721 -18.773874 -0.003002 1.894225 1.769912 0.030400 -0.087916 0.038867 -0.000000 0.000000 0.000000 0.000000 0.000000 0.000000 0.000000 23.591287 2.592570 -0.034535 67.902714 5.428263 -11.202328 3.210393 8.477987 0.008563 -1.253079 6.566279 -0.076690 0.079722 -0.044629 0.000000 0.000000 0.000000 0.000000 0.000000 0.000000 0.000000 
17.757183 16.980147 2.261241 165.260715 -80.824309 -144.487953 -5.086310 0.376618 5.480749 -2.370323 0.666849 -1.883146 -8.298244 0.574948 0.913468 7.293637 5.523557 3.386164 -6.039470 -0.480442 2.385022 0.000000 0.000000 0.000000 -6.750273 -0.937483 1.960978 -58.110298 -12.800746 8.840117 -3.989356 -18.462990 -0.003213 1.720390 1.929877 0.030299 -0.088359 0.041132 -0.000000 0.000000 0.000000 0.000000 0.000000 0.000000 0.000000 23.172308 2.648592 -0.046437 68.049432 5.231300 -11.018245 3.217617 8.792910 0.008479 -1.091292 6.376864 -0.065492 0.080089 -0.043828 0.000000 0.000000 0.000000 0.000000 0.000000 0.000000 0.000000 
17.637850 17.005596 2.276650 166.447592 -80.538075 -145.551143 -5.088480 0.426473 5.535217 -2.368692 0.716887 -1.864876 -8.245251 0.625776 0.919792 7.110234 5.602630 3.518028 -5.991017 -0.478073 2.416142 0.000000 0.000000 0.000000 -6.771261 -1.126629 1.953770 -58.170545 -13.070561 8.934152 -3.996508 -18.258327 -0.003386 1.553907 2.073049 0.029600 -0.088949 0.043105 -0.000000 0.000000 0.000000 0.000000 0.000000 0.000000 0.000000 22.775065 2.729096 -0.056329 68.185613 5.062121 -10.740370 3.228861 9.137513 0.008383 -0.851160 6.181818 -0.050393 0.079902 -0.042853 0.000000 0.000000 0.000000 0.000000 0.000000 0.000000 0.000000 
17.520277 17.029295 2.291051 167.653726 -80.240359 -146.636041 -5.090806 0.474381 5.586746 -2.367844 0.765676 -1.846227 -8.202343 0.675414 0.929022 6.941450 5.679049 3.643538 -5.948709 -0.475979 2.445135 0.000000 0.000000 0.000000 -6.795706 -1.294877 1.947856 -58.185985 -13.357540 9.117025 -4.003206 -18.154861 -0.003523 1.402524 2.193038 0.028504 -0.089738 0.044796 -0.000000 0.000000 0.000000 0.000000 0.000000 0.000000 0.000000 22.421981 2.808057 -0.066315 68.299530 4.955886 -10.355803 3.243171 9.486639 0.008276 -0.546458 5.990884 -0.032695 0.079184 -0.041662 0.000000 0.000000 0.000000 0.000000 0.000000 0.000000 0.000000 
17.404135 17.051252 2.303480 168.704972 -79.940701 -147.578525 -5.117853 0.514522 5.637636 -2.372998 0.808176 -1.830085 -8.169917 0.718358 0.928416 6.800920 5.786758 3.782473 -5.913011 -0.474288 2.477256 0.000000 0.000000 0.000000 -6.807959 -1.487125 1.949235 -58.151150 -13.604008 9.375680 -4.008469 -18.172767 -0.003618 1.279252 2.280739 0.027209 -0.090613 0.046097 -0.000000 0.000000 0.000000 0.000000 0.000000 0.000000 0.000000 22.126299 2.913560 -0.074006 68.395367 4.865893 -9.944397 3.257720 9.859544 0.008137 -0.174698 5.802616 -0.012699 0.077723 -0.040302 0.000000 0.000000 0.000000 0.000000 0.000000 0.000000 0.000000 
17.289681 17.071687 2.313599 169.549024 -79.650466 -148.334616 -5.175205 0.543483 5.694759 -2.385660 0.841146 -1.815121 -8.148786 0.751486 0.917265 6.692477 5.914270 3.935466 -5.885730 -0.473094 2.512599 0.000000 0.000000 0.000000 -6.804656 -1.724195 1.958497 -58.061080 -13.788867 9.691222 -4.011136 -18.319967 -0.003671 1.191592 2.334002 0.026116 -0.091478 0.046964 -0.000000 0.000000 0.000000 0.000000 0.000000 0.000000 0.000000 21.899173 3.028421 -0.078574 68.468089 4.808195 -9.513089 3.271107 10.243506 0.007965 0.247479 5.621476 0.008699 0.075578 -0.038814 0.000000 0.000000 0.000000 0.000000 0.000000 0.000000 0.000000 
